<?xml version="1.0" encoding="UTF-8" standalone="no"?>
<svg
   xmlns:dc="http://purl.org/dc/elements/1.1/"
   xmlns:cc="http://creativecommons.org/ns#"
   xmlns:rdf="http://www.w3.org/1999/02/22-rdf-syntax-ns#"
   xmlns:svg="http://www.w3.org/2000/svg"
   xmlns="http://www.w3.org/2000/svg"
   xmlns:sodipodi="http://sodipodi.sourceforge.net/DTD/sodipodi-0.dtd"
   xmlns:inkscape="http://www.inkscape.org/namespaces/inkscape"
   width="22"
   height="22"
   version="1.1"
   id="svg1782"
   sodipodi:docname="matray-no-news-colorful.svg"
   inkscape:version="1.0.2 (e86c870879, 2021-01-15)">
  <metadata
     id="metadata1786">
    <rdf:RDF>
      <cc:Work
         rdf:about="">
        <dc:format>image/svg+xml</dc:format>
        <dc:type
           rdf:resource="http://purl.org/dc/dcmitype/StillImage" />
        <dc:title></dc:title>
      </cc:Work>
    </rdf:RDF>
  </metadata>
  <sodipodi:namedview
     pagecolor="#ffffff"
     bordercolor="#666666"
     borderopacity="1"
     objecttolerance="10"
     gridtolerance="10"
     guidetolerance="10"
     inkscape:pageopacity="0"
     inkscape:pageshadow="2"
     inkscape:window-width="1716"
     inkscape:window-height="1123"
     id="namedview1784"
     showgrid="false"
     inkscape:zoom="45.5"
     inkscape:cx="2.098901"
     inkscape:cy="11"
     inkscape:window-x="2639"
     inkscape:window-y="70"
     inkscape:window-maximized="0"
     inkscape:current-layer="svg1782"
     inkscape:document-rotation="0" />
  <defs
     id="defs1776">
    <style
       id="current-color-scheme"
       type="text/css">
   .ColorScheme-Text { color:#dfdfdf; } .ColorScheme-Highlight { color:#4285f4; } .ColorScheme-NeutralText { color:#ff9800; } .ColorScheme-PositiveText { color:#4caf50; } .ColorScheme-NegativeText { color:#f44336; }
  </style>
  </defs>
  <path
     style="fill:#35bf5c;fill-opacity:1"
     class="ColorScheme-Text"
     d="m 12,6 v 4.529297 C 12,11.326138 11.326139,12 10.529297,12 H 9 8 6 5 v 4.263672 C 5,16.713797 5.3464797,16.995368 5.7773438,17 h 7.1992182 l 1.556641,2 1.554688,-2 h 2.134765 C 18.653545,17 19,16.713797 19,16.263672 V 6.8125 C 19,6.362375 18.653545,6 18.222656,6 Z"
     id="path1778" />
  <path
     style="fill:#16a085;fill-opacity:1"
     class="ColorScheme-Highlight"
     d="M 3.4695652,3 C 3.2094261,3 3,3.2094261 3,3.4695652 v 7.0606518 c 0,0.26014 0.2094261,0.469566 0.4695652,0.469566 H 5 V 5 H 8 V 3 Z M 9,3 v 7.999783 h 1.529935 c 0.260139,0 0.469565,-0.209426 0.469565,-0.469566 V 3.4695652 C 10.9995,3.2094261 10.790074,3 10.529935,3 Z M 6,6 v 4.999783 H 8 V 6 Z"
     id="path1780" />
</svg>
