<?xml version="1.0" encoding="UTF-8" standalone="no"?>
<svg
   xmlns:dc="http://purl.org/dc/elements/1.1/"
   xmlns:cc="http://creativecommons.org/ns#"
   xmlns:rdf="http://www.w3.org/1999/02/22-rdf-syntax-ns#"
   xmlns:svg="http://www.w3.org/2000/svg"
   xmlns="http://www.w3.org/2000/svg"
   xmlns:sodipodi="http://sodipodi.sourceforge.net/DTD/sodipodi-0.dtd"
   xmlns:inkscape="http://www.inkscape.org/namespaces/inkscape"
   width="24"
   height="24"
   version="1.1"
   id="svg955"
   sodipodi:docname="matray-news-colorful.svg"
   inkscape:version="1.0.2 (e86c870879, 2021-01-15)">
  <metadata
     id="metadata959">
    <rdf:RDF>
      <cc:Work
         rdf:about="">
        <dc:format>image/svg+xml</dc:format>
        <dc:type
           rdf:resource="http://purl.org/dc/dcmitype/StillImage" />
        <dc:title></dc:title>
      </cc:Work>
    </rdf:RDF>
  </metadata>
  <sodipodi:namedview
     pagecolor="#ffffff"
     bordercolor="#666666"
     borderopacity="1"
     objecttolerance="10"
     gridtolerance="10"
     guidetolerance="10"
     inkscape:pageopacity="0"
     inkscape:pageshadow="2"
     inkscape:window-width="2228"
     inkscape:window-height="1289"
     id="namedview957"
     showgrid="false"
     inkscape:zoom="38"
     inkscape:cx="12"
     inkscape:cy="12"
     inkscape:window-x="2674"
     inkscape:window-y="43"
     inkscape:window-maximized="0"
     inkscape:current-layer="svg955" />
  <defs
     id="defs949">
    <style
       id="current-color-scheme"
       type="text/css">
   .ColorScheme-Text { color:#dfdfdf; } .ColorScheme-Highlight { color:#4285f4; } .ColorScheme-NeutralText { color:#ff9800; } .ColorScheme-PositiveText { color:#4caf50; } .ColorScheme-NegativeText { color:#f44336; }
  </style>
  </defs>
  <path
     style="fill:#35bf5c;fill-opacity:1"
     class="ColorScheme-Text"
     d="m 13,7 v 4.529297 C 13,12.326138 12.326139,13 11.529297,13 H 10 9 7 6 v 4.263672 C 6,17.713797 6.3464797,17.995368 6.7773438,18 h 7.1992182 l 1.556641,2 1.554688,-2 h 2.134765 C 19.653545,18 20,17.713797 20,17.263672 V 7.8125 C 20,7.362375 19.653545,7 19.222656,7 Z"
     id="path951" />
  <path
     style="fill:#ef2929;fill-opacity:1"
     class="ColorScheme-Highlight"
     d="M 4.4695652,4 C 4.2094261,4 4,4.2094261 4,4.4695652 v 7.0606518 c 0,0.26014 0.2094261,0.469566 0.4695652,0.469566 H 6 V 6 H 9 V 4 Z M 10,4 v 7.999783 h 1.529935 c 0.260139,0 0.469565,-0.209426 0.469565,-0.469566 V 4.4695652 C 11.9995,4.2094261 11.790074,4 11.529935,4 Z M 7,7 v 4.999783 H 9 V 7 Z"
     id="path953" />
</svg>
